<?xml version="1.0" encoding="utf-8"?>
<!-- Generator: Adobe Illustrator 26.3.1, SVG Export Plug-In . SVG Version: 6.00 Build 0)  -->
<svg version="1.1" id="Layer_1" xmlns="http://www.w3.org/2000/svg" xmlns:xlink="http://www.w3.org/1999/xlink" x="0px" y="0px"
	 viewBox="0 0 2458 512" style="enable-background:new 0 0 2458 512;" xml:space="preserve">
<style type="text/css">
	.st0{display:none;}
	.st1{display:inline;}
	.st2{fill:#47A7F6;}
	.st3{fill:#FFFFFF;stroke:#FFFFFF;stroke-width:6;}
	.st4{fill:#273444;stroke:#273445;stroke-width:8;}
	.st5{fill:#ECB412;}
	.st6{display:none;fill:#ECB412;}
	.st7{display:inline;fill-rule:evenodd;clip-rule:evenodd;fill:#ECB412;}
	.st8{fill-rule:evenodd;clip-rule:evenodd;fill:#ECB412;}
	.st9{display:none;enable-background:new    ;}
	.st10{font-family:'SonorousRegular';}
	.st11{font-size:334.8px;}
	.st12{fill:#273445;}
	.st13{font-family:'AvenirNext-DemiBold';}
	.st14{font-size:375px;}
</style>
<g id="Logo" class="st0">
	<g id="on_white" class="st1">
		<g id="woot-log">
			<circle id="Oval" class="st2" cx="256" cy="256" r="256"/>
			<path id="Fill-1" class="st3" d="M362.8,368.8H244.1c-65.4,0-118.7-53.2-118.7-118.7c0-65.4,53.2-118.7,118.7-118.7
				c65.4,0,118.7,53.2,118.7,118.7V368.8z"/>
		</g>
		<path id="chatwoot" class="st4" d="M773,256.8c-4.3-6.6-10.8-12.2-19.5-16.6c-8.6-4.5-17.9-6.7-27.7-6.7c-10.7,0-20.1,2-28.3,6.1
			c-8.2,4-15.2,9.4-21,16.2c-5.8,6.8-10.2,14.6-13.2,23.6s-4.5,18.3-4.5,28.1s1.5,19.2,4.5,28.1s7.4,16.8,13.2,23.6
			c5.8,6.8,12.8,12.2,21.2,16.2s17.9,6.1,28.5,6.1c10.4,0,19.8-2,28.3-6.1c8.5-4,15.5-9.5,21-16.4l27.2,24.7
			c-8.6,10.1-19.5,17.9-32.4,23.6c-13,5.6-27.7,8.4-44.1,8.4c-15.9,0-30.5-2.6-43.9-7.8s-25-12.5-34.8-21.8s-17.5-20.7-23.1-33.9
			c-5.6-13.3-8.4-28.1-8.4-44.5c0-16.1,2.7-30.8,8.2-44.1c5.5-13.3,13.1-24.7,22.9-34.2s21.4-16.9,34.8-22.1
			c13.4-5.2,27.9-7.8,43.5-7.8c14.4,0,28.8,2.9,43,8.6s25.6,14.1,33.9,25.1L773,256.8z M885.4,236.1c4.9-10.1,13.3-18.7,25.1-25.9
			s25.1-10.8,39.8-10.8c13.3,0,24.7,2.2,34.2,6.7s17.4,10.5,23.8,17.9c6.3,7.5,11,16.3,14.1,26.4c3.1,10.1,4.5,20.9,4.5,32.4v127.1
			h-40.7V296.6c0-8.4-0.6-16.3-1.9-23.8c-1.3-7.5-3.7-14.1-7.1-19.9s-8.1-10.4-14.1-13.8c-5.9-3.5-13.6-5.2-23.1-5.2
			c-16.1,0-29.4,6.1-39.8,18.4c-10.4,12.3-15.6,28.6-15.6,49.1v108.5h-40.7V83h40.7v153.1H885.4z M1223.2,277.2
			c0-15.3-4.6-26.6-13.8-33.9c-9.2-7.4-21.5-11-36.8-11c-11.5,0-22.4,2.2-32.7,6.7c-10.2,4.5-18.8,10.2-25.7,17.1l-21.6-25.9
			c10.1-9.5,22.4-17,37-22.5s30.2-8.2,46.9-8.2c14.7,0,27.5,2.1,38.3,6.3s19.7,9.9,26.6,17.1c6.9,7.2,12.1,15.7,15.6,25.5
			c3.5,9.8,5.2,20.3,5.2,31.6v89.5c0,6.9,0.2,14.2,0.6,21.8c0.4,7.6,1.2,13.9,2.4,18.8h-36.8c-2.3-9.8-3.5-19.6-3.5-29.4h-1.3
			c-7.5,11-16.9,19.5-28.3,25.5c-11.4,6.1-24.9,9.1-40.4,9.1c-8.1,0-16.5-1.1-25.3-3.2c-8.8-2.2-16.8-5.7-24-10.6
			s-13.2-11.4-17.9-19.5c-4.8-8.1-7.1-18-7.1-29.8c0-15.6,4.2-27.9,12.5-37c8.4-9.1,19.3-16,32.9-20.8s28.8-7.9,45.8-9.3
			s34.2-2.2,51.5-2.2L1223.2,277.2L1223.2,277.2z M1213.2,312.2c-10.1,0-20.5,0.4-31.4,1.3s-20.6,2.6-29.4,5.2s-16.1,6.5-21.8,11.7
			c-5.8,5.2-8.6,12.1-8.6,20.8c0,6.1,1.2,11.1,3.7,15.1s5.7,7.4,9.7,9.9c4,2.6,8.5,4.4,13.4,5.4s9.9,1.5,15.1,1.5
			c19,0,33.7-5.7,43.9-17.1c10.2-11.4,15.4-25.7,15.4-43v-10.8H1213.2z M1426,238.3h-54.5v106.8c0,12.4,2.3,21.3,6.9,26.6
			c4.6,5.3,12,8,22.1,8c3.7,0,7.8-0.4,12.1-1.3c4.3-0.9,8.2-2.2,11.7-3.9l1.3,33.3c-4.9,1.7-10.3,3.1-16.2,4.1
			c-5.9,1-12,1.5-18.4,1.5c-19.3,0-34.1-5.3-44.3-16c-10.2-10.7-15.4-26.7-15.4-48V238.3h-39.4V205h39.4v-58.8h40.2V205h54.5
			L1426,238.3L1426,238.3z M1506.1,205l46.3,156.5h0.9l48.9-156.5h42.8l49.7,156.5h0.9l46.3-156.5h42.8l-67.9,205h-42.4l-50.6-154
			h-0.9l-50.2,154h-42.4L1462,205H1506.1z M2032.8,307c0,15.9-2.8,30.4-8.4,43.7c-5.6,13.3-13.4,24.7-23.4,34.4
			c-9.9,9.7-21.7,17.2-35.2,22.5s-28.1,8-43.7,8s-30.1-2.7-43.7-8s-25.2-12.8-35-22.5s-17.5-21.1-23.1-34.4s-8.4-27.8-8.4-43.7
			c0-15.9,2.8-30.3,8.4-43.5c5.6-13.1,13.3-24.4,23.1-33.9c9.8-9.5,21.5-16.9,35-22.3c13.6-5.3,28.1-8,43.7-8s30.1,2.7,43.7,8
			s25.3,12.8,35.2,22.3c9.9,9.5,17.7,20.8,23.4,33.9C2030,276.7,2032.8,291.2,2032.8,307z M1990.4,307c0-9.8-1.5-19.2-4.5-28.1
			s-7.4-16.8-13.2-23.6c-5.8-6.8-12.9-12.2-21.4-16.2s-18.2-6.1-29.2-6.1s-20.7,2-29.2,6.1c-8.5,4-15.6,9.4-21.4,16.2
			c-5.8,6.8-10.2,14.6-13.2,23.6s-4.5,18.3-4.5,28.1c0,9.8,1.5,19.2,4.5,28.1s7.4,16.9,13.2,23.8c5.8,6.9,12.9,12.4,21.4,16.4
			s18.2,6.1,29.2,6.1s20.7-2,29.2-6.1c8.5-4,15.6-9.5,21.4-16.4s10.2-14.8,13.2-23.8S1990.4,316.8,1990.4,307z M2296.6,307
			c0,15.9-2.8,30.4-8.4,43.7c-5.6,13.3-13.4,24.7-23.4,34.4c-9.9,9.7-21.7,17.2-35.2,22.5c-13.6,5.3-28.1,8-43.7,8s-30.1-2.7-43.7-8
			c-13.6-5.3-25.2-12.8-35-22.5s-17.5-21.1-23.1-34.4s-8.4-27.8-8.4-43.7c0-15.9,2.8-30.3,8.4-43.5c5.6-13.1,13.3-24.4,23.1-33.9
			s21.5-16.9,35-22.3c13.6-5.3,28.1-8,43.7-8s30.1,2.7,43.7,8c13.6,5.3,25.3,12.8,35.2,22.3s17.7,20.8,23.4,33.9
			C2293.8,276.7,2296.6,291.2,2296.6,307z M2254.2,307c0-9.8-1.5-19.2-4.5-28.1s-7.4-16.8-13.2-23.6s-12.9-12.2-21.4-16.2
			s-18.2-6.1-29.2-6.1s-20.7,2-29.2,6.1c-8.5,4-15.6,9.4-21.4,16.2c-5.8,6.8-10.2,14.6-13.2,23.6c-3,8.9-4.5,18.3-4.5,28.1
			c0,9.8,1.5,19.2,4.5,28.1s7.4,16.9,13.2,23.8s12.9,12.4,21.4,16.4s18.2,6.1,29.2,6.1s20.7-2,29.2-6.1c8.5-4,15.6-9.5,21.4-16.4
			c5.8-6.9,10.2-14.8,13.2-23.8C2252.7,326.2,2254.2,316.8,2254.2,307z M2453.2,238.3h-54.5v106.8c0,12.4,2.3,21.3,6.9,26.6
			c4.6,5.3,12,8,22.1,8c3.7,0,7.8-0.4,12.1-1.3s8.2-2.2,11.7-3.9l1.3,33.3c-4.9,1.7-10.3,3.1-16.2,4.1s-12,1.5-18.4,1.5
			c-19.3,0-34.1-5.3-44.3-16s-15.4-26.7-15.4-48V238.3h-39.4V205h39.4v-58.8h40.2V205h54.5L2453.2,238.3L2453.2,238.3z"/>
	</g>
</g>
<g>
	<g>
		<path class="st5" d="M455.5,467.6c-4.8,0-9.4-2.1-12.7-5.8c-5.9-6.9-10.7-12.9-14.5-17.6C417.8,431,415,428,409.7,426.4
			c-8.2-2.6-24.4-2.5-53.7-2.4c-6.1,0-215.8,0-215.8,0c-63.1,0-114.5-51.4-114.5-114.5v-80.6c0-28.4,10.6-55.8,29.8-76.9
			c14-15.4,31.5-26.5,51-32.5c0,0,0.1,0,0.1-0.1c9.7-53.4,56.5-94.1,112.7-94.1H415c63.3,0,114.6,51.3,114.6,114.6v122.4
			c0,10-8.2,18-18.1,17.2c-8.5-0.7-15.2-7.9-15.2-16.6v-123c0-44.9-36.4-81.3-81.3-81.3H219.4c-44.9,0-81.3,36.4-81.3,81.3v80.4
			c0,44.9,36.4,81.3,81.3,81.3h236c9.3,0,16.8,7.5,16.8,16.8V451c0,7-4.3,13.2-10.9,15.6C459.4,467.3,457.5,467.6,455.5,467.6z"/>
	</g>
	<path class="st6" d="M224.6,180.2c0-10.3-8.4-18.7-18.7-18.7s-18.7,8.4-18.7,18.7s8.4,18.7,18.7,18.7
		C216.3,198.9,224.6,190.5,224.6,180.2z"/>
	<path class="st6" d="M335.3,180.2c0-10.3-8.4-18.7-18.7-18.7c-10.3,0-18.7,8.4-18.7,18.7s8.4,18.7,18.7,18.7
		S335.3,190.5,335.3,180.2z"/>
	<path class="st6" d="M445.9,180.2c0-10.3-8.4-18.7-18.7-18.7c-10.3,0-18.7,8.4-18.7,18.7s8.4,18.7,18.7,18.7
		C437.6,198.9,445.9,190.5,445.9,180.2z"/>
</g>
<g class="st0">
	<path class="st7" d="M1017.9,198.8l-69.3-0.3c-14.6-0.1-27.9-6.1-37.6-15.9l0,0c-9.6-9.7-15.5-23.1-15.5-37.8
		c0.1-14.6,6.1-28,15.9-37.6l0,0c9.7-9.6,23.1-15.5,37.8-15.5l69.3,0.3c8.8,0,16-7.1,16-15.9s-7.1-16-15.9-16l-69.3-0.3
		c-23.4-0.1-44.8,9.4-60.3,24.8l0,0c-15.5,15.4-25.2,36.7-25.3,60.1s9.4,44.8,24.8,60.3l0,0c15.4,15.5,36.7,25.2,60.1,25.3l69.3,0.3
		c8.8,0,16-7.1,16-15.9C1033.8,206,1026.7,198.8,1017.9,198.8z"/>
	<path class="st7" d="M1018.2,128.8l-79-0.4c-8.8,0-16,7.1-16,15.9c0,8.8,7.1,16,15.9,16l79,0.4c8.8,0,16-7.1,16-15.9
		C1034.2,136,1027,128.8,1018.2,128.8z"/>
</g>
<g>
	<path class="st8" d="M429.2,258.8H301.3c-20.4,0-38.9-8.3-52.3-21.7c-13.4-13.4-21.7-31.9-21.7-52.3s8.3-38.9,21.7-52.3
		c13.4-13.4,31.9-21.7,52.3-21.7h60.5c8,0,14.5,6.5,14.5,14.5s-6.5,14.5-14.5,14.5h-60.5c-12.4,0-23.7,5.1-31.8,13.3
		c-8.2,8.2-13.3,19.4-13.3,31.8c0,12.4,5.1,23.7,13.3,31.8c8.2,8.2,19.5,13.3,31.8,13.3h127.9c8,0,14.5,6.5,14.5,14.5
		C443.7,252.3,437.2,258.8,429.2,258.8z"/>
	<path class="st8" d="M410.3,185.3c0,8-6.5,14.5-14.5,14.5H293c-8,0-14.5-6.5-14.5-14.5s6.5-14.5,14.5-14.5h102.8
		C403.8,170.8,410.3,177.3,410.3,185.3z"/>
</g>
<text transform="matrix(0.9 0 0 1 586.2373 398.2402)" class="st9 st10 st11">Ellixar Chat</text>
<text transform="matrix(0.9467 0 0 1 616.0283 361.1557)" class="st12 st13 st14">ellixar chat</text>
</svg>
