<?xml version="1.0" encoding="utf-8"?>
<!-- Generator: Adobe Illustrator 26.3.1, SVG Export Plug-In . SVG Version: 6.00 Build 0)  -->
<svg version="1.1" id="Layer_1" xmlns="http://www.w3.org/2000/svg" xmlns:xlink="http://www.w3.org/1999/xlink" x="0px" y="0px"
	 viewBox="0 0 512 512" style="enable-background:new 0 0 512 512;" xml:space="preserve">
<style type="text/css">
	.st0{fill:#ECB412;}
	.st1{display:none;fill:#ECB412;}
	.st2{display:none;}
	.st3{display:inline;fill-rule:evenodd;clip-rule:evenodd;fill:#ECB412;}
	.st4{fill-rule:evenodd;clip-rule:evenodd;fill:#ECB412;}
</style>
<g>
	<g>
		<path class="st0" d="M433.8,477.2c-4.8,0-9.4-2.1-12.7-5.8c-5.9-6.9-10.7-12.9-14.5-17.6c-10.5-13.2-13.3-16.2-18.6-17.8
			c-8.2-2.6-24.4-2.5-53.7-2.4c-6.1,0-215.8,0-215.8,0C55.5,433.5,4.1,382.1,4.1,319v-80.6c0-28.4,10.6-55.8,29.8-76.9
			c14-15.4,31.5-26.5,51-32.5c0,0,0.1,0,0.1-0.1c9.7-53.4,56.5-94.1,112.7-94.1h195.6c63.3,0,114.6,51.3,114.6,114.6v122.4
			c0,10-8.2,18-18.1,17.2c-8.5-0.7-15.2-7.9-15.2-16.6V149.5c0-44.9-36.4-81.3-81.3-81.3H197.7c-44.9,0-81.3,36.4-81.3,81.3v80.4
			c0,44.9,36.4,81.3,81.3,81.3h236c9.3,0,16.8,7.5,16.8,16.8v132.6c0,7-4.3,13.2-10.9,15.6C437.7,476.8,435.8,477.2,433.8,477.2z"/>
	</g>
	<path class="st1" d="M203,189.7c0-10.3-8.4-18.7-18.7-18.7c-10.3,0-18.7,8.4-18.7,18.7c0,10.3,8.4,18.7,18.7,18.7
		C194.6,208.4,203,200.1,203,189.7z"/>
	<path class="st1" d="M313.6,189.7c0-10.3-8.4-18.7-18.7-18.7c-10.3,0-18.7,8.4-18.7,18.7c0,10.3,8.4,18.7,18.7,18.7
		C305.2,208.4,313.6,200.1,313.6,189.7z"/>
	<path class="st1" d="M424.3,189.7c0-10.3-8.4-18.7-18.7-18.7c-10.3,0-18.7,8.4-18.7,18.7c0,10.3,8.4,18.7,18.7,18.7
		C415.9,208.4,424.3,200.1,424.3,189.7z"/>
</g>
<g class="st2">
	<path class="st3" d="M444.9,157.8l-69.3-0.3c-14.6-0.1-27.9-6.1-37.6-15.9l0,0c-9.6-9.7-15.5-23.1-15.5-37.8
		c0.1-14.6,6.1-28,15.9-37.6l0,0c9.7-9.6,23.1-15.5,37.8-15.5l69.3,0.3c8.8,0,16-7.1,16-15.9c0-8.8-7.1-16-15.9-16l-69.3-0.3
		c-23.4-0.1-44.8,9.4-60.3,24.8l0,0c-15.5,15.4-25.2,36.7-25.3,60.1c-0.1,23.4,9.4,44.8,24.8,60.3l0,0
		c15.4,15.5,36.7,25.2,60.1,25.3l69.3,0.3c8.8,0,16-7.1,16-15.9C460.8,165,453.7,157.8,444.9,157.8z"/>
	<path class="st3" d="M445.2,87.8l-79-0.4c-8.8,0-16,7.1-16,15.9c0,8.8,7.1,16,15.9,16l79,0.4c8.8,0,16-7.1,16-15.9
		C461.2,95,454,87.8,445.2,87.8z"/>
</g>
<g>
	<path class="st4" d="M407.5,268.3H279.7c-20.4,0-38.9-8.3-52.3-21.7c-13.4-13.4-21.7-31.9-21.7-52.3c0-20.4,8.3-38.9,21.7-52.3
		c13.4-13.4,31.9-21.7,52.3-21.7h60.5c8,0,14.5,6.5,14.5,14.5c0,8-6.5,14.5-14.5,14.5h-60.5c-12.4,0-23.7,5.1-31.8,13.3
		c-8.2,8.2-13.3,19.4-13.3,31.8c0,12.4,5.1,23.7,13.3,31.8c8.2,8.2,19.5,13.3,31.8,13.3h127.9c8,0,14.5,6.5,14.5,14.5
		C422,261.8,415.5,268.3,407.5,268.3z"/>
	<path class="st4" d="M388.6,194.9c0,8-6.5,14.5-14.5,14.5H271.3c-8,0-14.5-6.5-14.5-14.5c0-8,6.5-14.5,14.5-14.5h102.8
		C382.2,180.4,388.6,186.9,388.6,194.9z"/>
</g>
</svg>
